<?xml version="1.0" encoding="UTF-8" standalone="no"?><!DOCTYPE svg PUBLIC "-//W3C//DTD SVG 1.1//EN" "http://www.w3.org/Graphics/SVG/1.1/DTD/svg11.dtd"><svg width="100%" height="100%" viewBox="0 0 3101 4385" version="1.1" xmlns="http://www.w3.org/2000/svg" xmlns:xlink="http://www.w3.org/1999/xlink" xml:space="preserve" xmlns:serif="http://www.serif.com/" style="fill-rule:evenodd;clip-rule:evenodd;"><g id="Layer-1" serif:id="Layer 1"><g id="text2985"><g><path d="M407.086,1333.88c-0.278,-19.773 10.242,-32.766 31.562,-38.981l269.003,0c21.877,0.989 34.697,6.285 38.459,15.889c7.385,19.632 0.767,37.004 -19.856,52.116l-159.897,112.493l150.909,0.848c21.041,4.096 31.91,15.112 32.606,33.049c-1.393,23.304 -11.008,36.368 -28.844,39.192l-283.843,0.212c-14.91,-2.683 -24.943,-13.276 -30.099,-31.777c-1.95,-16.666 6.062,-31.92 24.037,-45.761l159.061,-106.985l-148.61,0c-19.508,-3.531 -31.004,-13.629 -34.488,-30.295Z" style="fill-rule:nonzero;"/><path d="M757.606,1428.58c9.615,-84.741 85.209,-131.348 226.782,-139.822c122.344,5.508 192.643,35.308 210.897,89.401c10.172,39.264 -20.344,64.227 -91.549,74.89c-71.204,10.663 -125.409,14.335 -162.614,11.016c-37.205,-3.319 -71.901,-8.085 -104.09,-14.3c18.951,28.247 71.274,44.207 156.971,47.879c71.483,-5.791 125.549,-21.044 162.196,-45.76c17.14,-5.226 28.496,-2.048 34.07,9.533c6.549,11.864 3.623,25.069 -8.779,39.617c-41.246,32.625 -103.184,51.48 -185.815,56.564c-146.868,-0.282 -226.225,-43.288 -238.069,-129.018Zm362.434,-43.641c-20.345,-16.949 -63.681,-28.389 -130.008,-34.32c-73.713,4.378 -122.135,16.1 -145.266,35.167c14.073,14.83 63.889,21.609 149.446,20.338c82.492,-4.943 124.434,-12.005 125.828,-21.185Z" style="fill-rule:nonzero;"/><path d="M1504.42,1294.48c23.131,0.141 35.741,8.827 37.831,26.058c1.812,19.349 -7.106,32.06 -26.754,38.133c-77.893,12.429 -138.229,35.874 -181.007,70.335l0,84.317c-6.271,23.445 -21.25,35.026 -44.939,34.744c-20.762,-1.413 -34.557,-12.853 -41.385,-34.32l0,-115.672c0.558,-7.203 -10.172,-16.665 -32.188,-28.388c-9.615,-9.462 -11.949,-21.15 -7.002,-35.061c4.946,-13.912 17.174,-20.444 36.682,-19.597c19.508,0.848 42.988,14.195 70.438,40.04c46.541,-32.201 109.316,-52.398 188.324,-60.589Z" style="fill-rule:nonzero;"/><path d="M1551.66,1228.59c4.181,-20.762 18.603,-32.343 43.266,-34.744c22.017,1.977 35.603,13.205 40.759,33.684l0,28.389l29.053,0c18.533,3.531 28.008,16.736 28.426,39.616c-0.418,18.078 -10.381,29.094 -29.889,33.049l-26.754,0l0,114.824c0.139,21.326 10.381,33.614 30.725,36.862c20.344,3.248 29.123,17.231 26.336,41.947c-6.689,25.563 -35.811,31.848 -87.369,18.855c-38.877,-18.22 -57.131,-49.856 -54.762,-94.91l0.209,-217.572Z" style="fill-rule:nonzero;"/><path d="M1701.1,1428.58c9.614,-84.741 85.208,-131.348 226.782,-139.822c122.344,5.508 192.643,35.308 210.897,89.401c10.172,39.264 -20.345,64.227 -91.549,74.89c-71.205,10.663 -125.41,14.335 -162.615,11.016c-37.204,-3.319 -71.901,-8.085 -104.089,-14.3c18.95,28.247 71.274,44.207 156.97,47.879c71.484,-5.791 125.549,-21.044 162.197,-45.76c17.139,-5.226 28.496,-2.048 34.069,9.533c6.549,11.864 3.623,25.069 -8.778,39.617c-41.246,32.625 -103.185,51.48 -185.815,56.564c-146.869,-0.282 -226.225,-43.288 -238.069,-129.018Zm362.433,-43.641c-20.344,-16.949 -63.68,-28.389 -130.008,-34.32c-73.713,4.378 -122.135,16.1 -145.266,35.167c14.074,14.83 63.889,21.609 149.446,20.338c82.492,-4.943 124.435,-12.005 125.828,-21.185Z" style="fill-rule:nonzero;"/><path d="M2151.12,1420.11c12.68,-73.583 83.745,-116.942 213.196,-130.077c75.663,-2.26 141.852,13.7 198.565,47.878c17.836,10.452 23.828,25.776 17.975,45.972c-14.631,15.96 -35.881,17.231 -63.75,3.814c-37.623,-24.575 -92.559,-35.238 -164.809,-31.99c-72.249,3.248 -114.854,25.493 -127.813,66.733c-4.041,41.1 47.168,65.604 153.627,73.513c66.885,-2.683 116.561,-17.301 149.028,-43.853c21.459,-9.745 38.041,-10.381 49.746,-1.907c13.934,10.593 13.656,26.411 -0.836,47.455c-41.803,37.851 -110.43,58.189 -205.881,61.013c-145.475,-6.779 -218.491,-52.963 -219.048,-138.551Z" style="fill-rule:nonzero;"/><path d="M2597.78,1515.65l0.209,-284.517c2.648,-20.055 16.373,-31.354 41.177,-33.896c27.729,0.423 42.36,11.369 43.893,32.837l0.418,82.622c33.024,-20.479 72.737,-30.577 119.139,-30.295c106.737,5.932 174.668,38.204 203.79,96.817l-0.418,132.619c-3.205,24.292 -18.393,37.004 -45.565,38.133c-24.664,-1.694 -38.807,-13.911 -42.43,-36.65l0.418,-116.519c-34.14,-27.117 -74.41,-40.428 -120.811,-39.934c-46.402,0.495 -85,13.665 -115.795,39.511l0,117.578c-4.599,23.586 -18.742,35.591 -42.43,36.014c-22.017,-1.553 -35.881,-12.993 -41.595,-34.32Z" style="fill-rule:nonzero;"/></g></g><path id="rect2991" d="M3087.5,1152.93c0,-50.936 -41.353,-92.289 -92.288,-92.289l-1351.98,0c-50.935,0 -92.288,41.353 -92.288,92.289l0,408.899c0,50.936 41.353,92.289 92.288,92.289l1351.98,0c50.935,0 92.288,-41.353 92.288,-92.289l0,-408.899Z"/><g id="text2985-1"><g><path d="M1598.29,1210.66c4.18,-20.761 18.602,-32.343 43.266,-34.744c22.016,1.978 35.602,13.206 40.758,33.685l0,28.388l29.053,0c18.533,3.531 28.008,16.736 28.426,39.616c-0.418,18.079 -10.381,29.095 -29.889,33.049l-26.754,0l0,114.824c0.14,21.327 10.381,33.614 30.726,36.863c20.344,3.248 29.122,17.23 26.336,41.946c-6.689,25.564 -35.812,31.849 -87.369,18.855c-38.877,-18.219 -57.131,-49.856 -54.762,-94.91l0.209,-217.572Z" style="fill:#fff;fill-rule:nonzero;"/><path d="M1747.74,1410.64c9.615,-84.741 85.209,-131.349 226.782,-139.823c122.344,5.508 192.643,35.309 210.897,89.402c10.172,39.263 -20.344,64.226 -91.549,74.89c-71.204,10.663 -125.409,14.335 -162.614,11.016c-37.205,-3.319 -71.901,-8.086 -104.09,-14.3c18.951,28.247 71.274,44.206 156.971,47.878c71.483,-5.79 125.549,-21.044 162.196,-45.76c17.14,-5.225 28.496,-2.048 34.07,9.534c6.549,11.863 3.623,25.069 -8.779,39.616c-41.246,32.625 -103.184,51.48 -185.815,56.565c-146.868,-0.283 -226.225,-43.289 -238.069,-129.018Zm362.434,-43.642c-20.345,-16.948 -63.681,-28.388 -130.008,-34.32c-73.713,4.378 -122.135,16.101 -145.266,35.167c14.073,14.83 63.889,21.609 149.446,20.338c82.492,-4.943 124.434,-12.005 125.828,-21.185Z" style="fill:#fff;fill-rule:nonzero;"/><path d="M2197.75,1402.17c12.68,-73.584 83.746,-116.943 213.196,-130.078c75.664,-2.259 141.852,13.7 198.565,47.879c17.836,10.451 23.828,25.775 17.976,45.972c-14.631,15.959 -35.881,17.23 -63.75,3.813c-37.623,-24.575 -92.559,-35.238 -164.809,-31.99c-72.25,3.249 -114.854,25.493 -127.813,66.734c-4.041,41.099 47.168,65.603 153.626,73.513c66.885,-2.684 116.562,-17.302 149.029,-43.854c21.459,-9.745 38.041,-10.381 49.745,-1.906c13.935,10.592 13.656,26.41 -0.836,47.454c-41.803,37.851 -110.43,58.189 -205.88,61.014c-145.475,-6.779 -218.491,-52.963 -219.049,-138.551Z" style="fill:#fff;fill-rule:nonzero;"/><path d="M2644.42,1497.72l0.209,-284.518c2.648,-20.055 16.373,-31.354 41.176,-33.896c27.73,0.424 42.361,11.369 43.893,32.837l0.419,82.622c33.024,-20.479 72.737,-30.577 119.139,-30.294c106.737,5.931 174.667,38.204 203.79,96.816l-0.418,132.62c-3.205,24.292 -18.393,37.003 -45.566,38.133c-24.663,-1.695 -38.807,-13.912 -42.43,-36.651l0.418,-116.518c-34.139,-27.117 -74.409,-40.429 -120.811,-39.934c-46.401,0.494 -85,13.664 -115.795,39.51l0,117.578c-4.598,23.586 -18.741,35.591 -42.43,36.015c-22.016,-1.554 -35.881,-12.994 -41.594,-34.32Z" style="fill:#fff;fill-rule:nonzero;"/></g></g><path id="path3782" d="M357.506,1162.7l0,0Z" style="fill:none;fill-rule:nonzero;stroke:#000;stroke-width:16.24px;"/><path id="path3784" d="M309.022,1090.88l0,0Z" style="fill:none;fill-rule:nonzero;stroke:#000;stroke-width:16.24px;"/><path id="path3786" d="M256.809,996.381l0,0Z" style="fill:none;fill-rule:nonzero;stroke:#000;stroke-width:16.24px;"/><path d="M354.865,1170.19l-117.954,363.468" style="fill:none;stroke:#000;stroke-width:16.67px;stroke-linecap:square;stroke-linejoin:round;stroke-miterlimit:1.5;"/><path d="M305.939,1098.54l-187.872,528.746" style="fill:none;stroke:#000;stroke-width:16.67px;stroke-linecap:square;stroke-linejoin:round;stroke-miterlimit:1.5;"/><path d="M253.99,1004.24l-241.067,714.305" style="fill:none;stroke:#000;stroke-width:16.67px;stroke-linecap:square;stroke-linejoin:round;stroke-miterlimit:1.5;"/></g></svg>