<?xml version="1.0" encoding="UTF-8" standalone="no"?><!DOCTYPE svg PUBLIC "-//W3C//DTD SVG 1.1//EN" "http://www.w3.org/Graphics/SVG/1.1/DTD/svg11.dtd"><svg width="100%" height="100%" viewBox="0 0 18271 6255" version="1.1" xmlns="http://www.w3.org/2000/svg" xmlns:xlink="http://www.w3.org/1999/xlink" xml:space="preserve" xmlns:serif="http://www.serif.com/" style="fill-rule:evenodd;clip-rule:evenodd;stroke-linejoin:round;stroke-miterlimit:2;"><g id="Layer-1" serif:id="Layer 1"><g><g id="text2985"><g><path d="M2437.31,2965.88c-1.629,-115.86 60.013,-191.992 184.936,-228.408l1576.22,0c128.187,5.795 203.306,36.826 225.349,93.101c43.272,115.033 4.494,216.824 -116.345,305.372l-936.912,659.149l884.247,4.969c123.289,24.001 186.975,88.549 191.054,193.65c-8.163,136.549 -64.502,213.097 -169.011,229.644l-1663.17,1.242c-87.365,-15.72 -146.153,-77.79 -176.364,-186.196c-11.426,-97.654 35.52,-187.034 140.844,-268.135l932.013,-626.876l-870.776,0c-114.306,-20.689 -181.667,-79.858 -202.081,-177.512Z" style="fill:#fff;fill-rule:nonzero;"/><path d="M4491.17,3520.77c56.338,-496.538 499.279,-769.63 1328.82,-819.283c716.871,32.274 1128.79,206.886 1235.75,523.842c59.603,230.066 -119.205,376.336 -536.429,438.816c-417.217,62.479 -734.83,83.995 -952.832,64.548c-218.001,-19.448 -421.301,-47.374 -609.912,-83.791c111.043,165.513 417.628,259.03 919.767,280.546c418.853,-33.932 735.651,-123.307 950.383,-268.129c100.431,-30.622 166.971,-12.001 199.632,55.858c38.374,69.517 21.229,146.891 -51.44,232.135c-241.68,191.165 -604.604,301.645 -1088.78,331.435c-860.569,-1.653 -1325.56,-253.645 -1394.96,-755.977Zm2123.67,-255.714c-119.211,-99.312 -373.137,-166.344 -761.778,-201.097c-431.919,25.653 -715.646,94.338 -851.182,206.06c82.46,86.896 374.356,126.618 875.675,119.17c483.359,-28.963 729.117,-70.343 737.285,-124.133Z" style="fill:#fff;fill-rule:nonzero;"/><path d="M8867.1,2735.01c135.535,0.827 209.423,51.722 221.669,152.687c10.618,113.374 -41.637,187.854 -156.764,223.439c-456.412,72.827 -809.949,210.202 -1060.61,412.126l0,494.053c-36.745,137.375 -124.514,205.234 -263.319,203.581c-121.654,-8.279 -202.486,-75.312 -242.494,-201.097l0,-677.777c3.269,-42.205 -59.603,-97.648 -188.605,-166.338c-56.339,-55.443 -70.015,-123.928 -41.028,-205.439c28.981,-81.517 100.631,-119.791 214.937,-114.828c114.307,4.969 251.887,83.175 412.73,234.613c272.705,-188.681 640.534,-307.025 1103.48,-355.02Z" style="fill:#fff;fill-rule:nonzero;"/><path d="M9143.9,2348.93c24.499,-121.654 109.004,-189.513 253.516,-203.582c129.008,11.585 208.615,77.375 238.826,197.371l0,166.344l170.235,0c108.594,20.69 164.112,98.065 166.562,232.129c-2.45,105.928 -60.827,170.476 -175.134,193.65l-156.764,0l0,672.808c0.814,124.959 60.827,196.96 180.032,215.992c119.205,19.031 170.645,100.964 154.315,245.787c-39.194,149.786 -209.834,186.612 -511.936,110.48c-227.799,-106.759 -334.758,-292.13 -320.877,-556.122l1.225,-1274.86Z" style="fill:#fff;fill-rule:nonzero;"/><path d="M10019.5,3520.77c56.333,-496.538 499.274,-769.63 1328.82,-819.283c716.871,32.274 1128.79,206.886 1235.75,523.842c59.602,230.066 -119.211,376.336 -536.429,438.816c-417.223,62.479 -734.836,83.995 -952.838,64.548c-217.995,-19.448 -421.302,-47.374 -609.906,-83.791c111.037,165.513 417.628,259.03 919.761,280.546c418.858,-33.932 735.651,-123.307 950.389,-268.129c100.425,-30.622 166.971,-12.001 199.626,55.858c38.374,69.517 21.229,146.891 -51.434,232.135c-241.68,191.165 -604.61,301.645 -1088.78,331.435c-860.575,-1.653 -1325.56,-253.645 -1394.96,-755.977Zm2123.67,-255.714c-119.205,-99.312 -373.131,-166.344 -761.778,-201.097c-431.919,25.653 -715.646,94.338 -851.182,206.06c82.466,86.896 374.356,126.618 875.675,119.17c483.359,-28.963 729.123,-70.343 737.285,-124.133Z" style="fill:#fff;fill-rule:nonzero;"/><path d="M12656.4,3471.14c74.298,-431.158 490.701,-685.218 1249.21,-762.183c443.346,-13.242 831.178,80.275 1163.49,280.54c104.51,61.243 139.62,151.034 105.324,269.372c-85.73,93.517 -210.243,100.964 -373.541,22.348c-220.451,-143.997 -542.347,-206.476 -965.694,-187.445c-423.34,19.032 -672.983,149.376 -748.916,391.02c-23.678,240.825 276.379,384.405 900.173,430.748c391.911,-15.721 682.986,-101.375 873.225,-256.956c125.739,-57.1 222.9,-60.827 291.485,-11.174c81.646,62.07 80.017,154.755 -4.898,278.061c-244.944,221.787 -647.062,340.957 -1206.35,357.504c-852.406,-39.721 -1280.24,-310.335 -1283.51,-811.835Z" style="fill:#fff;fill-rule:nonzero;"/><path d="M15273.6,4030.95l1.225,-1667.12c15.516,-117.512 95.937,-183.718 241.275,-198.613c162.477,2.478 248.207,66.616 257.19,192.407l2.449,484.122c193.503,-119.997 426.2,-179.165 698.092,-177.513c625.422,34.758 1023.46,223.855 1194.1,567.296l-2.449,777.078c-18.78,142.338 -107.773,216.823 -266.987,223.439c-144.518,-9.926 -227.388,-81.511 -248.617,-214.75l2.449,-682.74c-200.042,-158.891 -436.003,-236.886 -707.888,-233.992c-271.892,2.901 -498.056,80.07 -678.498,231.514l0,688.945c-26.948,138.201 -109.818,208.544 -248.617,211.023c-129.008,-9.1 -210.244,-76.132 -243.725,-201.097Z" style="fill:#fff;fill-rule:nonzero;"/></g></g><path id="rect2991" d="M18143.1,1905.6c0,-298.458 -242.307,-540.764 -540.759,-540.764l-7921.89,0c-298.453,0 -540.759,242.306 -540.759,540.764l0,2395.93c0,298.458 242.306,540.765 540.759,540.765l7921.89,0c298.452,0 540.759,-242.307 540.759,-540.765l0,-2395.93Z" style="fill:#fff;stroke:#fff;stroke-width:4.17px;"/><g id="text2985-1"><g><path d="M9417.13,2243.87c24.493,-121.649 108.998,-189.513 253.516,-203.582c129.002,11.59 208.609,77.38 238.82,197.376l0,166.339l170.236,0c108.593,20.69 164.112,98.064 166.561,232.129c-2.449,105.933 -60.827,170.481 -175.134,193.65l-156.764,0l0,672.807c0.82,124.965 60.827,196.961 180.038,215.998c119.205,19.032 170.64,100.959 154.315,245.782c-39.194,149.791 -209.839,186.618 -511.936,110.48c-227.799,-106.754 -334.757,-292.13 -320.876,-556.123l1.224,-1274.86Z" style="fill-rule:nonzero;"/><path d="M10292.8,3415.65c56.339,-496.538 499.28,-769.636 1328.82,-819.289c716.871,32.274 1128.79,206.892 1235.75,523.848c59.602,230.061 -119.205,376.331 -536.429,438.816c-417.218,62.48 -734.83,83.996 -952.832,64.548c-218.002,-19.448 -421.302,-47.38 -609.912,-83.79c111.042,165.512 417.627,259.023 919.767,280.539c418.852,-33.926 735.65,-123.306 950.382,-268.129c100.432,-30.616 166.972,-12 199.633,55.864c38.373,69.511 21.228,146.891 -51.441,232.129c-241.679,191.165 -604.603,301.645 -1088.78,331.441c-860.569,-1.658 -1325.56,-253.651 -1394.96,-755.977Zm2123.67,-255.719c-119.211,-99.307 -373.137,-166.339 -761.778,-201.097c-431.92,25.652 -715.647,94.343 -851.182,206.06c82.46,86.896 374.355,126.617 875.674,119.169c483.36,-28.963 729.118,-70.342 737.286,-124.132Z" style="fill-rule:nonzero;"/><path d="M12929.6,3366.02c74.298,-431.163 490.707,-685.224 1249.22,-762.188c443.351,-13.237 831.177,80.274 1163.49,280.545c104.51,61.238 139.62,151.028 105.33,269.372c-85.73,93.511 -210.243,100.959 -373.541,22.342c-220.451,-143.996 -542.347,-206.476 -965.694,-187.444c-423.346,19.037 -672.983,149.375 -748.916,391.025c-23.678,240.819 276.379,384.399 900.167,430.748c391.911,-15.727 682.992,-101.381 873.231,-256.961c125.739,-57.101 222.9,-60.828 291.48,-11.169c81.651,62.064 80.016,154.749 -4.899,278.056c-244.943,221.787 -647.061,340.956 -1206.35,357.509c-852.406,-39.721 -1280.24,-310.335 -1283.51,-811.835Z" style="fill-rule:nonzero;"/><path d="M15546.9,3925.89l1.224,-1667.13c15.516,-117.511 95.937,-183.717 241.27,-198.612c162.483,2.484 248.213,66.616 257.19,192.407l2.455,484.121c193.503,-119.996 426.2,-179.165 698.091,-177.506c625.423,34.752 1023.46,223.855 1194.1,567.29l-2.449,777.083c-18.78,142.338 -107.774,216.818 -266.993,223.439c-144.512,-9.931 -227.388,-81.517 -248.617,-214.755l2.449,-682.734c-200.037,-158.891 -435.997,-236.892 -707.889,-233.992c-271.885,2.895 -498.055,80.064 -678.497,231.508l0,688.945c-26.942,138.201 -109.812,208.544 -248.617,211.028c-129.003,-9.105 -210.244,-76.138 -243.719,-201.097Z" style="fill-rule:nonzero;"/></g></g><g><g><path d="M2131.32,2006.74l-691.148,2129.73" style="fill:none;stroke:#fff;stroke-width:97.68px;stroke-linecap:square;stroke-miterlimit:1.5;"/><path d="M1844.64,1586.91l-1100.83,3098.17" style="fill:none;stroke:#fff;stroke-width:97.68px;stroke-linecap:square;stroke-miterlimit:1.5;"/><path d="M1540.24,1034.36l-1412.53,4185.45" style="fill:none;stroke:#fff;stroke-width:97.68px;stroke-linecap:square;stroke-miterlimit:1.5;"/></g></g></g></g></svg>