<?xml version="1.0" encoding="UTF-8" standalone="no"?><!DOCTYPE svg PUBLIC "-//W3C//DTD SVG 1.1//EN" "http://www.w3.org/Graphics/SVG/1.1/DTD/svg11.dtd"><svg width="100%" height="100%" viewBox="0 0 12921 18271" version="1.1" xmlns="http://www.w3.org/2000/svg" xmlns:xlink="http://www.w3.org/1999/xlink" xml:space="preserve" xmlns:serif="http://www.serif.com/" style="fill-rule:evenodd;clip-rule:evenodd;stroke-linejoin:round;stroke-miterlimit:2;"><g id="Layer-1" serif:id="Layer 1"><g id="text2985"><g><path d="M1696.19,5557.83c-1.159,-82.387 42.675,-136.525 131.508,-162.42l1120.85,0c91.154,4.12 144.571,26.187 160.246,66.204c30.771,81.8 3.196,154.183 -82.734,217.15l-666.237,468.721l628.787,3.533c87.671,17.066 132.959,62.967 135.859,137.704c-5.804,97.1 -45.867,151.533 -120.184,163.3l-1182.68,0.883c-62.125,-11.179 -103.929,-55.316 -125.412,-132.404c-8.125,-69.441 25.258,-133 100.154,-190.671l662.754,-445.77l-619.208,0c-81.284,-14.713 -129.184,-56.788 -143.7,-126.23Z" style="fill:#fff;fill-rule:nonzero;"/><path d="M3156.69,5952.42c40.062,-353.088 355.037,-547.284 944.925,-582.592c509.766,22.95 802.679,147.117 878.737,372.504c42.384,163.6 -84.766,267.613 -381.454,312.042c-296.683,44.429 -522.537,59.729 -677.558,45.9c-155.021,-13.829 -299.588,-33.688 -433.709,-59.583c78.963,117.695 296.975,184.195 654.046,199.495c297.846,-24.129 523.121,-87.683 675.817,-190.666c71.417,-21.775 118.733,-8.534 141.958,39.72c27.288,49.434 15.096,104.455 -36.579,165.071c-171.858,135.938 -429.933,214.5 -774.229,235.684c-611.95,-1.175 -942.604,-180.367 -991.954,-537.575Zm1510.14,-181.838c-84.771,-70.621 -265.337,-118.287 -541.7,-143c-307.137,18.242 -508.896,67.083 -605.275,146.529c58.638,61.792 266.204,90.038 622.692,84.742c343.717,-20.596 518.475,-50.021 524.283,-88.271Z" style="fill:#fff;fill-rule:nonzero;"/><path d="M6268.42,5393.67c96.379,0.587 148.921,36.779 157.629,108.575c7.55,80.62 -29.609,133.583 -111.475,158.887c-324.554,51.788 -575.954,149.475 -754.196,293.063l0,351.321c-26.129,97.687 -88.542,145.941 -187.246,144.766c-86.508,-5.887 -143.987,-53.554 -172.437,-143l0,-481.966c2.325,-30.013 -42.384,-69.438 -134.117,-118.284c-40.063,-39.425 -49.788,-88.125 -29.175,-146.087c20.608,-57.967 71.558,-85.184 152.842,-81.654c81.283,3.533 179.116,59.145 293.491,166.833c193.921,-134.171 455.484,-218.325 784.684,-252.454Z" style="fill:#fff;fill-rule:nonzero;"/><path d="M6465.25,5119.13c17.421,-86.508 77.513,-134.763 180.275,-144.767c91.738,8.238 148.346,55.021 169.829,140.35l0,118.288l121.054,0c77.221,14.712 116.7,69.733 118.442,165.066c-1.742,75.325 -43.254,121.226 -124.537,137.705l-111.475,0l0,478.433c0.579,88.858 43.254,140.058 128.02,153.592c84.767,13.533 121.346,71.796 109.734,174.779c-27.871,106.512 -149.213,132.7 -364.038,78.562c-161.987,-75.916 -238.046,-207.733 -228.175,-395.458l0.871,-906.55Z" style="fill:#fff;fill-rule:nonzero;"/><path d="M7087.92,5952.42c40.058,-353.088 355.033,-547.284 944.925,-582.592c509.766,22.95 802.679,147.117 878.737,372.504c42.384,163.6 -84.771,267.613 -381.454,312.042c-296.687,44.429 -522.542,59.729 -677.562,45.9c-155.017,-13.829 -299.588,-33.688 -433.705,-59.583c78.959,117.695 296.975,184.195 654.042,199.495c297.85,-24.129 523.121,-87.683 675.821,-190.666c71.412,-21.775 118.733,-8.534 141.954,39.72c27.288,49.434 15.096,104.455 -36.575,165.071c-171.858,135.938 -429.937,214.5 -774.229,235.684c-611.954,-1.175 -942.604,-180.367 -991.954,-537.575Zm1510.14,-181.838c-84.766,-70.621 -265.333,-118.287 -541.7,-143c-307.137,18.242 -508.896,67.083 -605.275,146.529c58.642,61.792 266.204,90.038 622.692,84.742c343.716,-20.596 518.479,-50.021 524.283,-88.271Z" style="fill:#fff;fill-rule:nonzero;"/><path d="M8963,5917.13c52.833,-306.596 348.938,-487.258 888.317,-541.988c315.262,-9.416 591.05,57.084 827.354,199.492c74.317,43.55 99.283,107.4 74.896,191.55c-60.963,66.5 -149.504,71.796 -265.625,15.892c-156.763,-102.396 -385.663,-146.825 -686.704,-133.292c-301.038,13.534 -478.559,106.221 -532.555,278.054c-16.837,171.25 196.534,273.35 640.113,306.305c278.687,-11.18 485.671,-72.088 620.95,-182.721c89.412,-40.604 158.504,-43.255 207.275,-7.946c58.058,44.137 56.9,110.046 -3.484,197.729c-174.179,157.712 -460.124,242.454 -857.837,254.221c-606.146,-28.246 -910.379,-220.679 -912.7,-577.296Z" style="fill:#fff;fill-rule:nonzero;"/><path d="M10824.1,6315.21l0.871,-1185.49c11.034,-83.563 68.221,-130.642 171.571,-141.233c115.538,1.762 176.5,47.37 182.888,136.82l1.741,344.259c137.6,-85.329 303.071,-127.404 496.413,-126.229c444.737,24.716 727.783,159.183 849.125,403.404l-1.742,552.579c-13.354,101.217 -76.637,154.183 -189.854,158.887c-102.767,-7.058 -161.696,-57.962 -176.792,-152.708l1.742,-485.496c-142.25,-112.987 -310.042,-168.45 -503.379,-166.391c-193.342,2.062 -354.167,56.937 -482.479,164.629l-0.001,489.908c-19.162,98.275 -78.091,148.296 -176.791,150.058c-91.738,-6.471 -149.504,-54.137 -173.313,-143Z" style="fill:#fff;fill-rule:nonzero;"/></g></g><path id="rect2991" d="M12864.6,4803.88c0,-212.233 -172.304,-384.537 -384.533,-384.537l-5633.25,0c-212.229,0 -384.533,172.304 -384.533,384.537l0,1703.75c0,212.233 172.304,384.537 384.533,384.537l5633.25,0c212.229,0 384.533,-172.304 384.533,-384.537l0,-1703.75Z" style="fill:#fff;stroke:#fff;stroke-width:4.17px;"/><g id="text2985-1"><g><path d="M6659.54,5044.42c17.416,-86.504 77.508,-134.763 180.275,-144.767c91.733,8.242 148.341,55.025 169.825,140.354l0,118.283l121.054,0c77.221,14.713 116.7,69.734 118.442,165.067c-1.742,75.329 -43.255,121.229 -124.538,137.704l-111.475,0l0,478.434c0.583,88.862 43.254,140.058 128.025,153.595c84.767,13.534 121.342,71.792 109.733,174.775c-27.87,106.517 -149.216,132.705 -364.037,78.563c-161.988,-75.913 -238.046,-207.733 -228.175,-395.458l0.871,-906.55Z" style="fill-rule:nonzero;"/><path d="M7282.25,5877.67c40.063,-353.088 355.038,-547.288 944.925,-582.596c509.767,22.95 802.679,147.121 878.738,372.508c42.383,163.596 -84.767,267.609 -381.455,312.042c-296.683,44.429 -522.537,59.729 -677.558,45.9c-155.021,-13.829 -299.587,-33.692 -433.708,-59.583c78.962,117.695 296.975,184.191 654.046,199.491c297.845,-24.125 523.12,-87.683 675.816,-190.666c71.417,-21.771 118.734,-8.534 141.959,39.725c27.287,49.429 15.095,104.454 -36.58,165.066c-171.858,135.938 -429.933,214.5 -774.229,235.688c-611.95,-1.179 -942.604,-180.371 -991.954,-537.575Zm1510.14,-181.842c-84.771,-70.617 -265.338,-118.283 -541.7,-143c-307.138,18.242 -508.896,67.087 -605.275,146.529c58.637,61.792 266.204,90.038 622.691,84.742c343.717,-20.596 518.475,-50.021 524.284,-88.271Z" style="fill-rule:nonzero;"/><path d="M9157.29,5842.38c52.833,-306.6 348.941,-487.262 888.316,-541.992c315.267,-9.412 591.05,57.084 827.355,199.496c74.316,43.546 99.283,107.396 74.9,191.55c-60.963,66.496 -149.505,71.792 -265.625,15.888c-156.763,-102.396 -385.663,-146.825 -686.705,-133.292c-301.041,13.538 -478.558,106.221 -532.554,278.058c-16.837,171.246 196.534,273.346 640.109,306.305c278.687,-11.184 485.675,-72.092 620.954,-182.725c89.412,-40.605 158.504,-43.255 207.271,-7.942c58.062,44.133 56.899,110.042 -3.484,197.725c-174.179,157.712 -460.125,242.454 -857.833,254.225c-606.146,-28.246 -910.379,-220.679 -912.704,-577.296Z" style="fill-rule:nonzero;"/><path d="M11018.4,6240.5l0.871,-1185.49c11.033,-83.562 68.22,-130.641 171.566,-141.233c115.542,1.767 176.504,47.371 182.888,136.821l1.745,344.258c137.6,-85.329 303.071,-127.404 496.413,-126.225c444.737,24.713 727.779,159.184 849.125,403.4l-1.742,552.584c-13.354,101.216 -76.637,154.179 -189.858,158.887c-102.763,-7.062 -161.696,-57.967 -176.792,-152.712l1.742,-485.492c-142.246,-112.988 -310.038,-168.454 -503.379,-166.392c-193.338,2.059 -354.167,56.934 -482.479,164.625l0,489.909c-19.159,98.275 -78.088,148.295 -176.792,150.062c-91.733,-6.475 -149.504,-54.142 -173.308,-143Z" style="fill-rule:nonzero;"/></g></g><g><g><path d="M1478.6,4875.79l-491.475,1514.45" style="fill:none;stroke:#fff;stroke-width:69.46px;stroke-linecap:square;stroke-miterlimit:1.5;"/><path d="M1274.75,4577.25l-782.8,2203.11" style="fill:none;stroke:#fff;stroke-width:69.46px;stroke-linecap:square;stroke-miterlimit:1.5;"/><path d="M1058.29,4184.33l-1004.45,2976.27" style="fill:none;stroke:#fff;stroke-width:69.46px;stroke-linecap:square;stroke-miterlimit:1.5;"/></g></g></g></svg>